<?xml version="1.0" encoding="UTF-8"?>
<svg width="20px" height="14px" viewBox="0 0 20 14" version="1.1" xmlns="http://www.w3.org/2000/svg" xmlns:xlink="http://www.w3.org/1999/xlink">
    <!-- Generator: Sketch 52.5 (67469) - http://www.bohemiancoding.com/sketch -->
    <title>Combined Shape</title>
    <desc>Created with Sketch.</desc>
    <g id="Screens" stroke="none" stroke-width="1" fill="none" fill-rule="evenodd">
        <g id="dash-meter-reading" transform="translate(-237.000000, -250.000000)" fill="#2E3C4D">
            <path d="M240.387082,255.758985 L256.009998,255.758985 C256.557756,255.758985 257.001801,256.20285 257.001801,256.758985 C257.001801,257.31127 256.546496,257.758985 256.009998,257.758985 L240.316014,257.758985 L244.407534,261.850504 C244.79938,262.24235 244.792325,262.868461 244.401801,263.258985 C244.008554,263.652232 243.380678,263.652076 242.99332,263.264718 L237.603174,257.874572 C237.507134,257.778531 237.435056,257.668417 237.386714,257.551148 C237.152544,257.368932 237.001801,257.083015 237.001801,256.758985 C237.001801,256.416344 237.17705,256.113952 237.438211,255.933752 C237.482523,255.854062 237.538709,255.778931 237.606843,255.710797 L243.025185,250.292455 C243.41457,249.90307 244.044088,249.901272 244.437335,250.294519 C244.827859,250.685043 244.833294,251.312773 244.439399,251.706668 L240.387082,255.758985 Z" id="Combined-Shape"></path>
        </g>
    </g>
</svg>