<?xml version="1.0" encoding="UTF-8"?>
<svg width="22px" height="22px" viewBox="0 0 22 22" version="1.1" xmlns="http://www.w3.org/2000/svg" xmlns:xlink="http://www.w3.org/1999/xlink">
    <!-- Generator: Sketch 52.5 (67469) - http://www.bohemiancoding.com/sketch -->
    <title>calendar</title>
    <desc>Created with Sketch.</desc>
    <g id="Screens" stroke="none" stroke-width="1" fill="none" fill-rule="evenodd">
        <g id="dash-meter-reading" transform="translate(-311.000000, -186.000000)" fill="#31303D">
            <path d="M317.333333,186.5 C317.977666,186.5 318.5,187.022334 318.5,187.666667 L318.5,189.533333 C318.5,189.791066 318.291066,190 318.033333,190 L316.633333,190 C316.3756,190 316.166667,189.791066 316.166667,189.533333 L316.166667,187.666667 C316.166667,187.022334 316.689001,186.5 317.333333,186.5 Z M326.666667,186.5 C327.310999,186.5 327.833333,187.022334 327.833333,187.666667 L327.833333,189.533333 C327.833333,189.791066 327.6244,190 327.366667,190 L325.966667,190 C325.708934,190 325.5,189.791066 325.5,189.533333 L325.5,187.666667 C325.5,187.022334 326.022334,186.5 326.666667,186.5 Z M330.166667,191.166667 L330.166667,190 L329.233333,190 C329.104467,190 329,189.895533 329,189.766667 L329,187.9 C329,187.771134 329.104467,187.666667 329.233333,187.666667 L332.033333,187.666667 C332.291066,187.666667 332.5,187.8756 332.5,188.133333 L332.5,204 C332.5,205.932997 330.932997,207.5 329,207.5 L315,207.5 C313.067003,207.5 311.5,205.932997 311.5,204 L311.5,188.133333 C311.5,187.8756 311.708934,187.666667 311.966667,187.666667 L314.766667,187.666667 C314.895533,187.666667 315,187.771134 315,187.9 L315,189.766667 C315,189.895533 314.895533,190 314.766667,190 L313.833333,190 L313.833333,191.166667 L330.166667,191.166667 Z M330.166667,204 L330.166667,193.5 L313.833333,193.5 L313.833333,204 C313.833333,204.644332 314.355668,205.166667 315,205.166667 L329,205.166667 C329.644332,205.166667 330.166667,204.644332 330.166667,204 Z M319.9,187.666667 L324.1,187.666667 C324.228866,187.666667 324.333333,187.771134 324.333333,187.9 L324.333333,189.766667 C324.333333,189.895533 324.228866,190 324.1,190 L319.9,190 C319.771134,190 319.666667,189.895533 319.666667,189.766667 L319.666667,187.9 C319.666667,187.771134 319.771134,187.666667 319.9,187.666667 Z M325.033333,195.833333 L327.133333,195.833333 C327.519933,195.833333 327.833333,196.042267 327.833333,196.3 L327.833333,197.7 C327.833333,197.957733 327.519933,198.166667 327.133333,198.166667 L325.033333,198.166667 C324.646734,198.166667 324.333333,197.957733 324.333333,197.7 L324.333333,196.3 C324.333333,196.042267 324.646734,195.833333 325.033333,195.833333 Z M316.633333,195.833333 L322.7,195.833333 C322.957733,195.833333 323.166667,196.042267 323.166667,196.3 L323.166667,197.7 C323.166667,197.957733 322.957733,198.166667 322.7,198.166667 L316.633333,198.166667 C316.3756,198.166667 316.166667,197.957733 316.166667,197.7 L316.166667,196.3 C316.166667,196.042267 316.3756,195.833333 316.633333,195.833333 Z M316.866667,200.5 L318.966667,200.5 C319.353266,200.5 319.666667,200.708934 319.666667,200.966667 L319.666667,202.366667 C319.666667,202.6244 319.353266,202.833333 318.966667,202.833333 L316.866667,202.833333 C316.480067,202.833333 316.166667,202.6244 316.166667,202.366667 L316.166667,200.966667 C316.166667,200.708934 316.480067,200.5 316.866667,200.5 Z M321.3,200.5 L327.366667,200.5 C327.6244,200.5 327.833333,200.708934 327.833333,200.966667 L327.833333,202.366667 C327.833333,202.6244 327.6244,202.833333 327.366667,202.833333 L321.3,202.833333 C321.042267,202.833333 320.833333,202.6244 320.833333,202.366667 L320.833333,200.966667 C320.833333,200.708934 321.042267,200.5 321.3,200.5 Z" id="calendar"></path>
        </g>
    </g>
</svg>