<?xml version="1.0" encoding="UTF-8"?>
<svg width="196px" height="185px" viewBox="0 0 196 185" version="1.1" xmlns="http://www.w3.org/2000/svg" xmlns:xlink="http://www.w3.org/1999/xlink">
    <!-- Generator: Sketch 52.5 (67469) - http://www.bohemiancoding.com/sketch -->
    <title>completed</title>
    <desc>Created with Sketch.</desc>
    <g id="Screens" stroke="none" stroke-width="1" fill="none" fill-rule="evenodd">
        <g id="dash-meter-reading" transform="translate(-102.000000, -383.000000)" fill="#4A98F7">
            <path d="M258.299201,408.522821 C259.298802,409.475272 259.337024,411.057723 258.384573,412.057324 C257.432121,413.056924 255.84967,413.095147 254.85007,412.142695 C238.685898,396.740959 217.28289,388 194.5,388 C146.175084,388 107,427.175084 107,475.5 C107,523.824916 146.175084,563 194.5,563 C242.824916,563 282,523.824916 282,475.5 C282,465.163162 280.208142,455.075704 276.747502,445.568655 C276.275228,444.271226 276.944148,442.836598 278.241577,442.364324 C279.539006,441.892049 280.973634,442.560969 281.445908,443.858398 C285.105354,453.911604 287,464.57772 287,475.5 C287,526.586339 245.586339,568 194.5,568 C143.413661,568 102,526.586339 102,475.5 C102,424.413661 143.413661,383 194.5,383 C218.580117,383 241.214272,392.243758 258.299201,408.522821 Z M293.732233,397.732233 C294.708544,396.755922 296.291456,396.755922 297.267767,397.732233 C298.244078,398.708544 298.244078,400.291456 297.267767,401.267767 L192.5,506.035534 L154.732233,468.267767 C153.755922,467.291456 153.755922,465.708544 154.732233,464.732233 C155.708544,463.755922 157.291456,463.755922 158.267767,464.732233 L192.5,498.964466 L293.732233,397.732233 Z" id="completed"></path>
        </g>
    </g>
</svg>