<?xml version="1.0" encoding="UTF-8"?>
<svg width="55px" height="55px" viewBox="0 0 55 55" version="1.1" xmlns="http://www.w3.org/2000/svg" xmlns:xlink="http://www.w3.org/1999/xlink">
    <!-- Generator: Sketch 52.5 (67469) - http://www.bohemiancoding.com/sketch -->
    <title>scan</title>
    <desc>Created with Sketch.</desc>
    <g id="Screens" stroke="none" stroke-width="1" fill="none" fill-rule="evenodd">
        <g id="dash-meter-reading" transform="translate(-34.000000, -58.000000)" fill="#FFC864">
            <g id="scan" transform="translate(34.000000, 58.000000)">
                <g id="email-inbox-02">
                    <g>
                        <path d="M22.1686275,49.0217391 L31.7529412,49.0217391 C32.084312,49.0217391 32.3529412,49.2903683 32.3529412,49.6217391 L32.3529412,54.4 C32.3529412,54.7313708 32.084312,55 31.7529412,55 L22.1686275,55 C21.8372566,55 21.5686275,54.7313708 21.5686275,54.4 L21.5686275,49.6217391 C21.5686275,49.2903683 21.8372566,49.0217391 22.1686275,49.0217391 Z M36.35,48.8509317 L46.75,48.8509317 C48.2687831,48.8509317 49.5,47.4744158 49.5,45.7763975 L49.5,34.7080745 C49.5,34.0288672 49.0075132,33.4782609 48.4,33.4782609 L42.35,33.4782609 C41.7424868,33.4782609 41.25,34.0288672 41.25,34.7080745 L41.25,36.552795 C41.25,39.9488317 38.7875661,42.7018634 35.75,42.7018634 L19.25,42.7018634 C16.2124339,42.7018634 13.75,39.9488317 13.75,36.552795 L13.75,34.7080745 C13.75,34.0288672 13.2575132,33.4782609 12.65,33.4782609 L6.6,33.4782609 C5.99248678,33.4782609 5.5,34.0288672 5.5,34.7080745 L5.5,45.7763975 C5.5,47.4744158 6.73121694,48.8509317 8.25,48.8509317 L18.65,48.8509317 C18.9813708,48.8509317 19.25,49.1195608 19.25,49.4509317 L19.25,54.4 C19.25,54.7313708 18.9813708,55 18.65,55 L8.25,55 C3.69365081,55 0,50.8704525 0,45.7763975 L0,27.3291925 C0,26.713435 0.751503605,22.8776653 2.25451082,15.8218834 C3.08975925,13.4873381 5.11215738,11.9565217 7.36113262,11.9565217 L10.999292,11.9565217 C12.518075,11.9565217 13.749292,13.3330376 13.749292,15.0310559 C13.749292,16.7290742 12.518075,18.1055901 10.999292,18.1055901 L8.71380906,18.1055901 C7.92728537,18.1055901 7.25010093,18.7262641 7.09585094,19.5885311 L5.84270539,26.5936926 C5.78313382,26.9267014 5.97630302,27.2506497 6.27416089,27.3172515 C6.29783772,27.3225457 9.15645076,27.326526 14.85,27.3291925 C17.2800529,27.3291925 19.25,29.5316179 19.25,32.2484472 L19.25,35.3229814 C19.25,36.0021887 19.7424868,36.552795 20.35,36.552795 L34.65,36.552795 C35.2575132,36.552795 35.75,36.0021887 35.75,35.3229814 L35.75,32.2484472 C35.75,29.5316179 37.7199471,27.3291925 40.15,27.3291925 L48.6165592,27.3291925 C48.9203158,27.3291925 49.1665592,27.0538894 49.1665592,26.7142857 C49.1665592,26.6872905 48.7452838,24.312039 47.902733,19.5885311 C47.748483,18.7262641 47.0712986,18.1055901 46.2847749,18.1055901 L43.999292,18.1055901 C42.4805089,18.1055901 41.249292,16.7290742 41.249292,15.0310559 C41.249292,13.3330376 42.4805089,11.9565217 43.999292,11.9565217 L47.6374513,11.9565217 C49.8864266,11.9565217 51.9088247,13.4873381 52.7440731,15.8218834 C54.2480244,22.8825443 55,26.718314 55,27.3291925 L55,45.7763975 C55,50.8704525 51.3063492,55 46.75,55 L36.35,55 C36.0186292,55 35.75,54.7313708 35.75,54.4 L35.75,49.4509317 C35.75,49.1195608 36.0186292,48.8509317 36.35,48.8509317 Z M25.4540244,21.5392602 L25.4540244,3.10869565 C25.4540244,1.39181045 26.611454,0 28.0392157,0 C29.4669774,0 30.6244069,1.39181045 30.6244069,3.10869565 L30.6244069,21.5392602 L34.6284525,15.9263819 C35.5881344,14.7046866 37.1440861,14.7046866 38.103768,15.9263819 C39.0634499,17.1480772 39.0634499,19.1288367 38.103768,20.3505321 L31.5145312,29.2544135 C29.5951674,31.6978042 26.4832639,31.6978042 24.5639002,29.2544135 L17.9746634,20.3505321 C17.0149815,19.1288367 17.0149815,17.1480772 17.9746634,15.9263819 C18.9343452,14.7046866 20.490297,14.7046866 21.4499788,15.9263819 L25.4540244,21.5392602 Z"></path>
                    </g>
                </g>
            </g>
        </g>
    </g>
</svg>