<?xml version="1.0" encoding="UTF-8"?>
<svg width="29px" height="51px" viewBox="0 0 29 51" version="1.1" xmlns="http://www.w3.org/2000/svg" xmlns:xlink="http://www.w3.org/1999/xlink">
    <!-- Generator: Sketch 52.5 (67469) - http://www.bohemiancoding.com/sketch -->
    <title>flash</title>
    <desc>Created with Sketch.</desc>
    <g id="Screens" stroke="none" stroke-width="1" fill="none" fill-rule="evenodd">
        <g id="dash-meter-reading" transform="translate(-324.000000, -319.000000)">
            <g id="electricity" transform="translate(324.000000, 319.000000)">
                <g id="flash">
                    <polygon id="Path" fill="#FFDD09" points="28 17.896562 16.4406627 17.896562 27.1562809 1 13.6562809 1 1 26.3447934 10.9562413 26.3447934 1 50"></polygon>
                    <path d="M0.894062371,51 C0.723736267,51 0.553509945,51 0.468297003,50.9150332 C0.127744577,50.6600332 -0.0425815258,50.235 0.127744577,49.8950332 L9.66411052,27.2000332 L0.894062371,27.2000332 C0.638623106,27.2000332 0.298070681,27.03 0.127744577,26.775 C-0.0425815258,26.52 -0.0425815258,26.1800332 0.127744577,25.9250332 L12.8997078,0.425033203 C13.0700339,0.170033203 13.3254732,0 13.6660256,0 L27.2894198,0 C27.6299722,0 27.8854115,0.170033203 28.0557376,0.425033203 C28.2260637,0.680033203 28.2260637,1.02 28.0557376,1.275 L18.0936062,17.0000332 L28.1408507,17.0000332 C28.4814031,17.0000332 28.7368424,17.1700664 28.9071685,17.5100332 C29.0774946,17.85 28.9922817,18.1900664 28.8220554,18.4450664 L1.57516722,50.745 C1.4049409,50.9150332 1.14950164,51 0.894062371,51 Z M2.25637185,25.5 L10.9413068,25.5 C11.1967461,25.5 11.4521854,25.6700332 11.6225115,25.8399668 C11.7928376,26.0949668 11.7928376,26.3499668 11.7076246,26.6049668 L3.8741206,45.3049336 L26.3527759,18.6999668 L16.4757577,18.6999668 C16.1352053,18.6999668 15.879766,18.5299336 15.7094399,18.2749336 C15.5391138,18.0199336 15.5391138,17.6799668 15.7094399,17.4249668 L25.7567842,1.7000332 L14.1769041,1.7000332 L2.25637185,25.5 Z" id="Shape" fill="#D0A45E" fill-rule="nonzero"></path>
                </g>
            </g>
        </g>
    </g>
</svg>