<?xml version="1.0" encoding="UTF-8"?>
<svg width="28px" height="46px" viewBox="0 0 28 46" version="1.1" xmlns="http://www.w3.org/2000/svg" xmlns:xlink="http://www.w3.org/1999/xlink">
    <!-- Generator: Sketch 52.5 (67469) - http://www.bohemiancoding.com/sketch -->
    <title>gas (1)</title>
    <desc>Created with Sketch.</desc>
    <g id="Screens" stroke="none" stroke-width="1" fill="none" fill-rule="evenodd">
        <g id="dash-meter-reading" transform="translate(-224.000000, -325.000000)">
            <g id="gas-(1)" transform="translate(224.000000, 325.000000)">
                <rect id="Rectangle" fill="#A8D3D6" x="9" y="1" width="11" height="11"></rect>
                <rect id="Rectangle" fill="#84AFB4" x="17" y="1" width="3" height="11"></rect>
                <rect id="Rectangle" fill="#FFD347" x="13" y="6" width="3" height="5"></rect>
                <rect id="Rectangle" fill="#A8D3D6" x="4" y="40" width="20" height="5"></rect>
                <rect id="Rectangle" fill="#84AFB4" x="20" y="40" width="3" height="5"></rect>
                <path d="M27,17.7501121 C27,13.4698194 23.6740249,10 19.5713672,10 L8.42846093,10.0001793 C4.32580325,10.0001793 1,13.469909 1,17.7501121 L1.00008594,37.1249888 C1.00008594,39.2650903 2.66303054,41 4.71435938,41 L23.2855547,41 C25.3368835,41 26.9998281,39.2650903 26.9998281,37.1249888 L27,17.7501121 Z" id="Path" fill="#DCF3F4"></path>
                <path d="M19.7266913,10 L17,10 C21.0163245,10.000807 24.2719623,13.4702677 24.2719623,17.7501121 L24.2718782,37.1249888 C24.2718782,39.2650903 22.6437227,41 20.635308,41 L23.3633457,41 C25.3717604,41 26.9999159,39.2650903 26.9999159,37.1249888 L27,17.7501121 C26.9999159,13.469909 23.7436048,10 19.7266913,10 Z" id="Path" fill="#B0CDCF"></path>
                <path d="M17.9496547,29.7156752 C17.6753821,25.1082676 14.5074285,23 14.5074285,23 C14.4135261,25.0644885 13.1552985,26.3925384 13.1552985,26.3925384 L12.3640778,25.5618391 C10.6314896,28.2259142 11.0425752,30.795474 11.0425752,30.795474 L11.0425752,30.7953043 C11.2591488,32.6021242 12.727889,34 14.5075093,34 C16.4363068,34 18,32.3583698 18,30.3332485 C17.9999192,30.2162498 17.9548266,29.8028939 17.9496547,29.7156752 Z" id="Path" fill="#FE8A46"></path>
                <path d="M17.9422667,29.715727 C17.6277453,25.1082838 13.9949032,23 13.9949032,23 C13.9670095,23.5338373 13.8495969,24.0178712 13.6912242,24.4429387 C14.6861273,25.5392904 15.7819479,27.2773159 15.9483829,29.7156421 C15.9543138,29.8028616 16.0060235,30.2161358 16.0060235,30.3332202 C16.0060235,32.0425685 14.7285701,33.4786348 13,33.8849518 C13.3182282,33.9595295 13.6513761,34 13.9949958,34 C16.206839,34 18,32.3583571 18,30.3333051 C17.9999073,30.2163054 17.9481976,29.8029464 17.9422667,29.715727 Z" id="Path" fill="#F26C2C"></path>
                <path d="M21.819493,19 L24.180507,19 C24.6331949,19 25,18.5524 25,18 C25,17.4476 24.6331949,17 24.180507,17 L21.819493,17 C21.3668051,17 21,17.4476 21,18 C21,18.5522667 21.3669143,19 21.819493,19 Z" id="Path" fill="#6E999E"></path>
                <path d="M27.9999118,37.5583546 L28,18.1464065 C28,13.7197065 24.6373016,10.0783322 20.377866,9.73378073 L20.377866,0.673829441 C20.377866,0.301606058 20.0818342,0 19.7164903,0 L8.28333333,0 C7.91798942,0 7.62195767,0.301606058 7.62195767,0.673829441 L7.62195767,9.73405026 C3.36252205,10.0785119 0,13.7197963 0,18.1464065 L0,18.1465862 L8.81834215e-05,37.5601515 C8.81834215e-05,39.8437145 1.65740741,41.7398706 3.81084656,42.0666329 L3.81084656,45.3261706 C3.81084656,45.6983939 4.10687831,46 4.47222222,46 L23.5276014,46 C23.8928571,46 24.1889771,45.6983939 24.1889771,45.3261706 L24.1889771,42.0666329 C26.3412698,41.7401401 27.9979718,39.8457809 27.9998236,37.5638351 C27.9998236,37.5625773 28,37.5614093 28,37.5601515 C28,37.5595226 27.9999118,37.5589835 27.9999118,37.5583546 Z M19.0551146,1.34765888 L19.0551146,9.7069174 L16.0905644,9.70700724 L16.0905644,6.4981416 C16.0905644,6.12591821 15.7945326,5.82431216 15.4291887,5.82431216 L12.5708113,5.82431216 C12.2054674,5.82431216 11.9094356,6.12591821 11.9094356,6.4981416 L11.9094356,9.70709708 L8.94470899,9.70718693 L8.94470899,1.34765888 L19.0551146,1.34765888 Z M13.2321869,9.7069174 L13.2321869,7.17197104 L14.7678131,7.17197104 L14.7678131,9.7069174 C14.7678131,9.7069174 13.2321869,9.7069174 13.2321869,9.7069174 Z M22.8662257,44.652431 L5.13359788,44.652431 L5.13359788,42.1168557 L22.8662257,42.1168557 L22.8662257,44.652431 Z M23.5275132,40.7691968 L4.47248677,40.7691968 C2.73580247,40.7691968 1.32283951,39.3297174 1.32283951,37.5601515 L1.32275132,18.8205055 L19.4930335,18.8205055 C19.8583774,18.8205055 20.1544092,18.5188995 20.1544092,18.1466761 C20.1544092,17.7744527 19.8583774,17.4728466 19.4930335,17.4728466 L1.35502646,17.4728466 C1.68924162,13.8773826 4.66834215,11.0548458 8.28333333,11.0548458 L19.7164903,11.0548458 C19.7176367,11.0548458 19.7186949,11.0546661 19.7198413,11.0546661 C23.5565256,11.0565528 26.6772487,14.2371177 26.6772487,18.1464065 L26.6771605,36.886322 L8.50687831,36.886322 C8.14153439,36.886322 7.84550265,37.1880179 7.84550265,37.5601515 C7.84550265,37.9323749 8.14153439,38.2339809 8.50687831,38.2339809 L26.6067019,38.2339809 C26.30194,39.6810072 25.0373898,40.7691968 23.5275132,40.7691968 Z" id="Shape" fill="#6E999E" fill-rule="nonzero"></path>
                <path d="M6.18052938,37 L3.81947062,37 C3.36679505,37 3,37.4476 3,38 C3,38.5524 3.36679505,39 3.81947062,39 L6.18052938,39 C6.63320495,39 7,38.5524 7,38 C7,37.4476 6.63309569,37 6.18052938,37 Z" id="Path" fill="#6E999E"></path>
                <path d="M10.0487981,31.0377154 C10.3078711,33.2980906 12.0061333,35 14.0073952,35 C16.2089249,35 18,32.9552282 18,30.4418629 C18,30.3350049 17.9855939,30.1628996 17.9637093,29.9124259 C17.9571754,29.8375623 17.9515075,29.7745619 17.9497756,29.7455332 L17.9497756,29.745713 C17.6670861,24.5812981 14.4598085,22.2033702 14.3233839,22.1046905 C14.1457091,21.9761733 13.9216673,21.9652988 13.735097,22.0758416 C13.5485267,22.1864742 13.4275315,22.4020776 13.4175338,22.6418565 C13.3692775,23.7954558 12.9540207,24.7132305 12.6371661,25.2539914 L12.336843,24.911129 C12.2125415,24.7692209 12.0384879,24.6978624 11.8644343,24.7165558 C11.6894361,24.7352492 11.5308907,24.8419275 11.4317801,25.0075619 C10.6887264,26.2499549 10.2132476,27.6774845 10.056749,29.1358404 C10.0067608,29.6009289 9.98967815,30.0567606 10.0059735,30.4907533 C10.0156563,30.7523712 10.0299836,30.9214208 10.0487981,31.0377154 Z M12.0310881,26.4686139 L12.2724487,26.744162 C12.38321,26.8706121 12.5333322,26.9416112 12.6899883,26.9416112 C12.6902245,26.9416112 12.6905394,26.9416112 12.6907755,26.9416112 C12.8476678,26.9413415 12.9979474,26.8698932 13.1086301,26.7429038 C13.1549184,26.6897893 14.0525027,25.6418797 14.4339091,23.9399703 C15.2927623,24.8821902 16.6052885,26.7983549 16.771155,29.8297435 L16.771155,29.8299232 C16.773123,29.8657822 16.7800505,29.9481051 16.7886312,30.0462455 C16.7982352,30.1558896 16.8182305,30.3840751 16.8190965,30.441773 C16.8190965,32.2118055 15.5578181,33.6518275 14.0073165,33.6518275 C12.5932394,33.6518275 11.3939937,32.4461023 11.2177359,30.8472763 C11.21687,30.8398169 11.2156105,30.8297512 11.2145871,30.8223817 C11.2114382,30.7998238 10.941974,28.7503786 12.0310881,26.4686139 Z" id="Shape" fill="#6E999E" fill-rule="nonzero"></path>
            </g>
        </g>
    </g>
</svg>