<?xml version="1.0" encoding="UTF-8"?>
<svg width="23px" height="20px" viewBox="0 0 23 20" version="1.1" xmlns="http://www.w3.org/2000/svg" xmlns:xlink="http://www.w3.org/1999/xlink">
    <!-- Generator: Sketch 52.5 (67469) - http://www.bohemiancoding.com/sketch -->
    <title>home</title>
    <desc>Created with Sketch.</desc>
    <g id="Screens" stroke="none" stroke-width="1" fill="none" fill-rule="evenodd">
        <g id="dash-meter-reading" transform="translate(-121.000000, -251.000000)" fill="#31303D">
            <path d="M123.300377,258.296665 L122.708668,258.635201 C122.153477,258.933215 121.453366,258.739944 121.144926,258.203518 C120.836486,257.667092 121.036518,256.990644 121.591709,256.692629 L130.824562,251.419476 C131.866521,250.860175 133.133479,250.860175 134.175438,251.419476 L143.408291,256.692629 C143.963482,256.990644 144.163514,257.667092 143.855074,258.203518 C143.546634,258.739944 142.846523,258.933215 142.291332,258.635201 L141.700042,258.296905 L141.700042,270.333333 C141.700042,270.701523 141.391124,271 141.010054,271 L134.340176,271 C133.959106,271 133.650189,270.701523 133.650189,270.333333 L133.650189,266.755556 C133.650189,266.645099 133.560646,266.555556 133.450189,266.555556 L131.55023,266.555556 C131.439774,266.555556 131.35023,266.645099 131.35023,266.755556 L131.35023,270.333333 C131.35023,270.701523 131.041313,271 130.660243,271 L123.990365,271 C123.609295,271 123.300377,270.701523 123.300377,270.333333 L123.300377,258.296665 Z M129,261 L134,261 C134.552285,261 135,261.447715 135,262 C135,262.552285 134.552285,263 134,263 L129,263 C128.447715,263 128,262.552285 128,262 C128,261.447715 128.447715,261 129,261 Z M126,256.873164 L126,268.771564 C126,268.897726 126.097005,269 126.216667,269 L129.033333,269 C129.152995,269 129.25,268.897726 129.25,268.771564 L129.25,265.431288 C129.25,264.879003 129.697715,264.431288 130.25,264.431288 L134.75,264.431288 C135.302285,264.431288 135.75,264.879003 135.75,265.431288 L135.75,268.771564 C135.75,268.897726 135.847005,269 135.966667,269 L138.783333,269 C138.902995,269 139,268.897726 139,268.771564 L139,256.87341 L133.025916,253.143735 C132.698725,252.952088 132.300881,252.952088 131.973689,253.143735 L126,256.873164 Z" id="home"></path>
        </g>
    </g>
</svg>