<?xml version="1.0" encoding="UTF-8"?>
<svg width="18px" height="18px" viewBox="0 0 18 18" version="1.1" xmlns="http://www.w3.org/2000/svg" xmlns:xlink="http://www.w3.org/1999/xlink">
    <!-- Generator: Sketch 52.5 (67469) - http://www.bohemiancoding.com/sketch -->
    <title>arrow-06-right-square</title>
    <desc>Created with Sketch.</desc>
    <g id="Screens" stroke="none" stroke-width="1" fill="none" fill-rule="evenodd">
        <g id="dash-meter-reading" transform="translate(-176.000000, -251.000000)" fill="#8F9FB3">
            <path d="M178,257 C178,257.552285 177.552285,258 177,258 C176.447715,258 176,257.552285 176,257 L176,254 C176,252.343146 177.343146,251 179,251 L182,251 C182.552285,251 183,251.447715 183,252 C183,252.552285 182.552285,253 182,253 L179,253 C178.447715,253 178,253.447715 178,254 L178,257 Z M186.865079,259 L184.295729,256.745834 C183.901424,256.34645 183.901424,255.698921 184.295729,255.299538 C184.690034,254.900154 185.32933,254.900154 185.723635,255.299538 L189.329227,258.506374 C189.386926,258.557692 189.441603,258.612303 189.492985,258.669932 C190.228461,259.494838 190.155144,260.759049 189.329227,261.493626 L185.723635,264.700462 C185.32933,265.099846 184.690034,265.099846 184.295729,264.700462 C183.901424,264.301079 183.901424,263.65355 184.295729,263.254166 L186.865079,261 L181,261 C180.447715,261 180,260.552285 180,260 C180,259.447715 180.447715,259 181,259 L186.865079,259 Z M186,253 C185.447715,253 185,252.552285 185,252 C185,251.447715 185.447715,251 186,251 L191,251 C192.656854,251 194,252.343146 194,254 L194,266 C194,267.656854 192.656854,269 191,269 L179,269 C177.343146,269 176,267.656854 176,266 L176,261 C176,260.447715 176.447715,260 177,260 C177.552285,260 178,260.447715 178,261 L178,266 C178,266.552285 178.447715,267 179,267 L191,267 C191.552285,267 192,266.552285 192,266 L192,254 C192,253.447715 191.552285,253 191,253 L186,253 Z" id="arrow-06-right-square"></path>
        </g>
    </g>
</svg>