<?xml version="1.0" encoding="UTF-8"?>
<svg width="20px" height="20px" viewBox="0 0 20 20" version="1.1" xmlns="http://www.w3.org/2000/svg" xmlns:xlink="http://www.w3.org/1999/xlink">
    <!-- Generator: Sketch 52.5 (67469) - http://www.bohemiancoding.com/sketch -->
    <title>Combined Shape</title>
    <desc>Created with Sketch.</desc>
    <g id="Screens" stroke="none" stroke-width="1" fill="none" fill-rule="evenodd">
        <g id="dash-meter-reading" transform="translate(-58.000000, -250.000000)" fill="#8F9FB3">
            <path d="M59.9976056,268.569752 C59.9590827,269.120692 59.4812289,269.536087 58.9302893,269.497564 C58.3793497,269.459041 57.9639539,268.981188 58.0024769,268.430248 C58.3028957,264.133781 61.7886807,262 67.9849434,262 C74.179664,262 77.6730432,264.131714 77.9953464,268.425142 C78.0366896,268.975877 77.6237458,269.455851 77.0730106,269.497194 C76.5222755,269.538537 76.0423012,269.125593 76.0009581,268.574858 C75.7727554,265.534952 73.2573287,264 67.9849434,264 C62.7141001,264 60.2099503,265.532885 59.9976056,268.569752 Z M68.0000413,260 C65.2386175,260 63.0000413,257.761424 63.0000413,255 C63.0000413,252.238576 65.2386175,250 68.0000413,250 C70.761465,250 73.0000413,252.238576 73.0000413,255 C73.0000413,257.761424 70.761465,260 68.0000413,260 Z M68.0000413,258 C69.6568955,258 71.0000413,256.656854 71.0000413,255 C71.0000413,253.343146 69.6568955,252 68.0000413,252 C66.343187,252 65.0000413,253.343146 65.0000413,255 C65.0000413,256.656854 66.343187,258 68.0000413,258 Z" id="Combined-Shape"></path>
        </g>
    </g>
</svg>