<?xml version="1.0" encoding="UTF-8"?>
<svg width="51px" height="51px" viewBox="0 0 51 51" version="1.1" xmlns="http://www.w3.org/2000/svg" xmlns:xlink="http://www.w3.org/1999/xlink">
    <!-- Generator: Sketch 52.5 (67469) - http://www.bohemiancoding.com/sketch -->
    <title>QR-code</title>
    <desc>Created with Sketch.</desc>
    <g id="Screens" stroke="none" stroke-width="1" fill="none" fill-rule="evenodd">
        <g id="dash-meter-reading" transform="translate(-117.000000, -66.000000)">
            <g id="QR-code" transform="translate(109.000000, 58.000000)">
                <g id="Bounding_Boxes">
                    <polygon id="Shape" points="0 0 67 0 67 67 0 67"></polygon>
                </g>
                <path d="M37.4083333,30.7083333 L57.5083333,30.7083333 C58.1250513,30.7083333 58.625,31.208282 58.625,31.825 L58.625,35.175 C58.625,35.791718 58.1250513,36.2916667 57.5083333,36.2916667 L37.4083333,36.2916667 C36.7916154,36.2916667 36.2916667,36.7916154 36.2916667,37.4083333 L36.2916667,43.55 C36.2916667,44.166718 35.791718,44.6666667 35.175,44.6666667 L31.825,44.6666667 C31.208282,44.6666667 30.7083333,44.166718 30.7083333,43.55 L30.7083333,23.45 C30.7083333,22.833282 31.208282,22.3333333 31.825,22.3333333 L35.175,22.3333333 C35.791718,22.3333333 36.2916667,22.833282 36.2916667,23.45 L36.2916667,29.5916667 C36.2916667,30.2083846 36.7916154,30.7083333 37.4083333,30.7083333 Z M40.2,39.0833333 L57.5083333,39.0833333 C58.1250513,39.0833333 58.625,39.583282 58.625,40.2 L58.625,55.8333333 C58.625,57.3751283 57.3751283,58.625 55.8333333,58.625 L40.2,58.625 C39.583282,58.625 39.0833333,58.1250513 39.0833333,57.5083333 L39.0833333,40.2 C39.0833333,39.583282 39.583282,39.0833333 40.2,39.0833333 Z M11.1666667,8.375 L26.8,8.375 C27.416718,8.375 27.9166667,8.8749487 27.9166667,9.49166667 L27.9166667,26.8 C27.9166667,27.416718 27.416718,27.9166667 26.8,27.9166667 L9.49166667,27.9166667 C8.8749487,27.9166667 8.375,27.416718 8.375,26.8 L8.375,11.1666667 C8.375,9.62487174 9.62487174,8.375 11.1666667,8.375 Z M44.6666667,45.7833333 L44.6666667,51.925 C44.6666667,52.541718 45.1666154,53.0416667 45.7833333,53.0416667 L51.925,53.0416667 C52.541718,53.0416667 53.0416667,52.541718 53.0416667,51.925 L53.0416667,45.7833333 C53.0416667,45.1666154 52.541718,44.6666667 51.925,44.6666667 L45.7833333,44.6666667 C45.1666154,44.6666667 44.6666667,45.1666154 44.6666667,45.7833333 Z M13.9583333,15.075 L13.9583333,21.2166667 C13.9583333,21.8333846 14.458282,22.3333333 15.075,22.3333333 L21.2166667,22.3333333 C21.8333846,22.3333333 22.3333333,21.8333846 22.3333333,21.2166667 L22.3333333,15.075 C22.3333333,14.458282 21.8333846,13.9583333 21.2166667,13.9583333 L15.075,13.9583333 C14.458282,13.9583333 13.9583333,14.458282 13.9583333,15.075 Z M40.2,8.375 L55.8333333,8.375 C57.3751283,8.375 58.625,9.62487174 58.625,11.1666667 L58.625,26.8 C58.625,27.416718 58.1250513,27.9166667 57.5083333,27.9166667 L40.2,27.9166667 C39.583282,27.9166667 39.0833333,27.416718 39.0833333,26.8 L39.0833333,9.49166667 C39.0833333,8.8749487 39.583282,8.375 40.2,8.375 Z M9.49166667,39.0833333 L26.8,39.0833333 C27.416718,39.0833333 27.9166667,39.583282 27.9166667,40.2 L27.9166667,57.5083333 C27.9166667,58.1250513 27.416718,58.625 26.8,58.625 L11.1666667,58.625 C9.62487174,58.625 8.375,57.3751283 8.375,55.8333333 L8.375,40.2 C8.375,39.583282 8.8749487,39.0833333 9.49166667,39.0833333 Z M9.49166667,30.7083333 L18.425,30.7083333 C19.041718,30.7083333 19.5416667,31.208282 19.5416667,31.825 L19.5416667,35.175 C19.5416667,35.791718 19.041718,36.2916667 18.425,36.2916667 L9.49166667,36.2916667 C8.8749487,36.2916667 8.375,35.791718 8.375,35.175 L8.375,31.825 C8.375,31.208282 8.8749487,30.7083333 9.49166667,30.7083333 Z M23.45,30.7083333 L26.8,30.7083333 C27.416718,30.7083333 27.9166667,31.208282 27.9166667,31.825 L27.9166667,35.175 C27.9166667,35.791718 27.416718,36.2916667 26.8,36.2916667 L23.45,36.2916667 C22.833282,36.2916667 22.3333333,35.791718 22.3333333,35.175 L22.3333333,31.825 C22.3333333,31.208282 22.833282,30.7083333 23.45,30.7083333 Z M31.825,8.375 L35.175,8.375 C35.791718,8.375 36.2916667,8.8749487 36.2916667,9.49166667 L36.2916667,18.425 C36.2916667,19.041718 35.791718,19.5416667 35.175,19.5416667 L31.825,19.5416667 C31.208282,19.5416667 30.7083333,19.041718 30.7083333,18.425 L30.7083333,9.49166667 C30.7083333,8.8749487 31.208282,8.375 31.825,8.375 Z M31.825,47.4583333 L35.175,47.4583333 C35.791718,47.4583333 36.2916667,47.958282 36.2916667,48.575 L36.2916667,57.5083333 C36.2916667,58.1250513 35.791718,58.625 35.175,58.625 L31.825,58.625 C31.208282,58.625 30.7083333,58.1250513 30.7083333,57.5083333 L30.7083333,48.575 C30.7083333,47.958282 31.208282,47.4583333 31.825,47.4583333 Z" fill="#FFC864"></path>
            </g>
        </g>
    </g>
</svg>