<?xml version="1.0" encoding="UTF-8"?>
<svg width="64px" height="51px" viewBox="0 0 64 51" version="1.1" xmlns="http://www.w3.org/2000/svg" xmlns:xlink="http://www.w3.org/1999/xlink">
    <!-- Generator: Sketch 52.5 (67469) - http://www.bohemiancoding.com/sketch -->
    <title>search</title>
    <desc>Created with Sketch.</desc>
    <g id="Screens" stroke="none" stroke-width="1" fill="none" fill-rule="evenodd">
        <g id="dash-meter-reading" transform="translate(-37.000000, -158.000000)">
            <g id="search" transform="translate(29.000000, 153.000000)">
                <g id="search-qrcode">
                    <g id="Group-3">
                        <g id="48x48/USER-INTERFACE/search" transform="translate(16.000000, 0.000000)">
                            <g id="search">
                                <g id="Bounding_Boxes">
                                    <polygon id="Shape" points="0 0 61 0 61 61 0 61"></polygon>
                                </g>
                                <path d="M41.7460527,46.2127303 C37.9122177,49.1129994 33.1361783,50.8333333 27.9583333,50.8333333 C15.3248197,50.8333333 5.08333333,40.591847 5.08333333,27.9583333 C5.08333333,15.3248197 15.3248197,5.08333333 27.9583333,5.08333333 C40.591847,5.08333333 50.8333333,15.3248197 50.8333333,27.9583333 C50.8333333,33.1361783 49.1129994,37.9122177 46.2127303,41.7460527 L54.991599,50.5249775 C56.2250225,51.758401 56.2250225,53.7581756 54.991599,54.991599 C53.7581756,56.2250225 51.758401,56.2250225 50.5249775,54.991599 L41.7460846,46.2127062 Z M27.9583333,45.75 C37.7843995,45.75 45.75,37.7843995 45.75,27.9583333 C45.75,18.1322672 37.7843995,10.1666667 27.9583333,10.1666667 C18.1322672,10.1666667 10.1666667,18.1322672 10.1666667,27.9583333 C10.1666667,37.7843995 18.1322672,45.75 27.9583333,45.75 Z" fill="#FFC864" fill-rule="nonzero"></path>
                            </g>
                        </g>
                        <g id="QR-code" transform="translate(0.746835, 2.153846)">
                            <g id="Bounding_Boxes">
                                <polygon id="Shape" points="0 0 61 0 61 61 0 61"></polygon>
                            </g>
                            <path d="M29.5331646,25.2211538 L45.3731646,25.2211538 C45.8591751,25.2211538 46.2531646,25.6017118 46.2531646,26.0711538 L46.2531646,28.6211538 C46.2531646,29.0905959 45.8591751,29.4711538 45.3731646,29.4711538 L29.5331646,29.4711538 C29.047154,29.4711538 28.6531646,29.8517118 28.6531646,30.3211538 L28.6531646,34.9961538 C28.6531646,35.4655959 28.2591751,35.8461538 27.7731646,35.8461538 L25.1331646,35.8461538 C24.647154,35.8461538 24.2531646,35.4655959 24.2531646,34.9961538 L24.2531646,19.6961538 C24.2531646,19.2267118 24.647154,18.8461538 25.1331646,18.8461538 L27.7731646,18.8461538 C28.2591751,18.8461538 28.6531646,19.2267118 28.6531646,19.6961538 L28.6531646,24.3711538 C28.6531646,24.8405959 29.047154,25.2211538 29.5331646,25.2211538 Z M32.1103074,30.8461538 L45.3960217,30.8461538 C45.8694086,30.8461538 46.2531646,31.2299098 46.2531646,31.7032967 L46.2531646,43.7032967 C46.2531646,44.886764 45.2937747,45.8461538 44.1103074,45.8461538 L32.1103074,45.8461538 C31.6369205,45.8461538 31.2531646,45.4623979 31.2531646,44.989011 L31.2531646,31.7032967 C31.2531646,31.2299098 31.6369205,30.8461538 32.1103074,30.8461538 Z M9.3960217,6.84615385 L21.3960217,6.84615385 C21.8694086,6.84615385 22.2531646,7.22990977 22.2531646,7.7032967 L22.2531646,20.989011 C22.2531646,21.4623979 21.8694086,21.8461538 21.3960217,21.8461538 L8.11030741,21.8461538 C7.63692049,21.8461538 7.25316456,21.4623979 7.25316456,20.989011 L7.25316456,8.98901099 C7.25316456,7.80554367 8.21255438,6.84615385 9.3960217,6.84615385 Z M34.2531646,35.7794872 L34.2531646,40.9128205 C34.2531646,41.4282863 34.6710321,41.8461538 35.1864979,41.8461538 L40.3198312,41.8461538 C40.835297,41.8461538 41.2531646,41.4282863 41.2531646,40.9128205 L41.2531646,35.7794872 C41.2531646,35.2640214 40.835297,34.8461538 40.3198312,34.8461538 L35.1864979,34.8461538 C34.6710321,34.8461538 34.2531646,35.2640214 34.2531646,35.7794872 Z M11.2531646,12.7794872 L11.2531646,17.9128205 C11.2531646,18.4282863 11.6710321,18.8461538 12.1864979,18.8461538 L17.3198312,18.8461538 C17.835297,18.8461538 18.2531646,18.4282863 18.2531646,17.9128205 L18.2531646,12.7794872 C18.2531646,12.2640214 17.835297,11.8461538 17.3198312,11.8461538 L12.1864979,11.8461538 C11.6710321,11.8461538 11.2531646,12.2640214 11.2531646,12.7794872 Z M32.1103074,6.84615385 L44.1103074,6.84615385 C45.2937747,6.84615385 46.2531646,7.80554367 46.2531646,8.98901099 L46.2531646,20.989011 C46.2531646,21.4623979 45.8694086,21.8461538 45.3960217,21.8461538 L32.1103074,21.8461538 C31.6369205,21.8461538 31.2531646,21.4623979 31.2531646,20.989011 L31.2531646,7.7032967 C31.2531646,7.22990977 31.6369205,6.84615385 32.1103074,6.84615385 Z M8.11030741,30.8461538 L21.3960217,30.8461538 C21.8694086,30.8461538 22.2531646,31.2299098 22.2531646,31.7032967 L22.2531646,44.989011 C22.2531646,45.4623979 21.8694086,45.8461538 21.3960217,45.8461538 L9.3960217,45.8461538 C8.21255438,45.8461538 7.25316456,44.886764 7.25316456,43.7032967 L7.25316456,31.7032967 C7.25316456,31.2299098 7.63692049,30.8461538 8.11030741,30.8461538 Z M8.05316456,24.8461538 L14.4531646,24.8461538 C14.8949924,24.8461538 15.2531646,25.2938691 15.2531646,25.8461538 L15.2531646,28.8461538 C15.2531646,29.3984386 14.8949924,29.8461538 14.4531646,29.8461538 L8.05316456,29.8461538 C7.61133676,29.8461538 7.25316456,29.3984386 7.25316456,28.8461538 L7.25316456,25.8461538 C7.25316456,25.2938691 7.61133676,24.8461538 8.05316456,24.8461538 Z M19.2531646,24.8461538 L22.2531646,24.8461538 C22.8054493,24.8461538 23.2531646,25.2938691 23.2531646,25.8461538 L23.2531646,28.8461538 C23.2531646,29.3984386 22.8054493,29.8461538 22.2531646,29.8461538 L19.2531646,29.8461538 C18.7008798,29.8461538 18.2531646,29.3984386 18.2531646,28.8461538 L18.2531646,25.8461538 C18.2531646,25.2938691 18.7008798,24.8461538 19.2531646,24.8461538 Z M24.2531646,6.84615385 L27.2531646,6.84615385 C27.8054493,6.84615385 28.2531646,7.20432605 28.2531646,7.64615385 L28.2531646,14.0461538 C28.2531646,14.4879816 27.8054493,14.8461538 27.2531646,14.8461538 L24.2531646,14.8461538 C23.7008798,14.8461538 23.2531646,14.4879816 23.2531646,14.0461538 L23.2531646,7.64615385 C23.2531646,7.20432605 23.7008798,6.84615385 24.2531646,6.84615385 Z M24.2531646,37.8461538 L27.2531646,37.8461538 C27.8054493,37.8461538 28.2531646,38.204326 28.2531646,38.6461538 L28.2531646,45.0461538 C28.2531646,45.4879816 27.8054493,45.8461538 27.2531646,45.8461538 L24.2531646,45.8461538 C23.7008798,45.8461538 23.2531646,45.4879816 23.2531646,45.0461538 L23.2531646,38.6461538 C23.2531646,38.204326 23.7008798,37.8461538 24.2531646,37.8461538 Z" fill-opacity="0.569010417" fill="#FFC864"></path>
                        </g>
                    </g>
                </g>
            </g>
        </g>
    </g>
</svg>