<?xml version="1.0" encoding="UTF-8"?>
<svg width="51px" height="47px" viewBox="0 0 51 47" version="1.1" xmlns="http://www.w3.org/2000/svg" xmlns:xlink="http://www.w3.org/1999/xlink">
    <!-- Generator: Sketch 52.5 (67469) - http://www.bohemiancoding.com/sketch -->
    <title>group</title>
    <desc>Created with Sketch.</desc>
    <g id="Screens" stroke="none" stroke-width="1" fill="none" fill-rule="evenodd">
        <g id="dash-meter-reading" transform="translate(-253.000000, -431.000000)" fill="#FFC864">
            <g id="grid" transform="translate(18.000000, 247.000000)">
                <g id="list-cust" transform="translate(182.000000, 149.000000)">
                    <g id="48x48/COMMUNICATION/group" transform="translate(48.000000, 28.000000)">
                        <g id="group">
                            <path d="M24.075,48.2916667 L36.925,48.2916667 C37.5877417,48.2916667 38.125,48.828925 38.125,49.4916667 L38.125,52.175 C38.125,52.8377417 37.5877417,53.375 36.925,53.375 L24.075,53.375 C23.4122583,53.375 22.875,52.8377417 22.875,52.175 L22.875,49.4916667 C22.875,48.828925 23.4122583,48.2916667 24.075,48.2916667 Z M40.6666667,43.2083333 C40.6666667,38.9971621 37.2528379,35.5833333 33.0416667,35.5833333 L27.9583333,35.5833333 C23.7471621,35.5833333 20.3333333,38.9971621 20.3333333,43.2083333 L20.3333333,53.375 C17.5258859,53.375 15.25,51.0991141 15.25,48.2916667 L10.1666667,48.2916667 C7.35921919,48.2916667 5.08333333,46.0157808 5.08333333,43.2083333 L5.08333333,38.125 C5.08333333,33.2143536 7.8685855,28.9542376 11.9455106,26.8382314 C10.0529106,24.7976072 8.89583333,22.0651785 8.89583333,19.0625 C8.89583333,12.7457432 14.0165765,7.625 20.3333333,7.625 C24.2277697,7.625 27.7695959,9.59003256 29.8570486,12.7261006 C30.069866,12.7143079 30.2842353,12.7083333 30.5,12.7083333 C30.7157762,12.7083333 30.9301568,12.7143085 31.1429854,12.7261025 C33.2309666,9.58926313 36.7729878,7.625 40.6666667,7.625 C46.9834235,7.625 52.1041667,12.7457432 52.1041667,19.0625 C52.1041667,22.0651785 50.9470894,24.7976072 49.0544894,26.8382314 C53.1314145,28.9542376 55.9166667,33.2143536 55.9166667,38.125 L55.9166667,43.2083333 C55.9166667,46.0157808 53.6407808,48.2916667 50.8333333,48.2916667 L45.75,48.2916667 C45.75,51.0991141 43.4741141,53.375 40.6666667,53.375 L40.6666667,43.2083333 Z M45.75,43.2083333 L50.8333333,43.2083333 L50.8333333,38.125 C50.8333333,33.9138288 47.4195046,30.5 43.2083333,30.5 L40.0114898,30.5 C39.6744252,31.0035482 39.2984346,31.4788382 38.8878228,31.9215648 C42.9647478,34.037571 45.75,38.2976869 45.75,43.2083333 Z M47.0208333,19.0625 C47.0208333,15.5531907 44.175976,12.7083333 40.6666667,12.7083333 C39.0518892,12.7083333 37.5467934,13.3155103 36.4044813,14.3482597 C39.7204722,16.3509265 41.9375,19.9894726 41.9375,24.1458333 C41.9375,24.5357456 41.917989,24.9211009 41.8798902,25.3009761 C44.8088914,24.7346991 47.0208333,22.1569129 47.0208333,19.0625 Z M36.7091264,25.5019917 C36.8046791,25.0599729 36.8541667,24.6086823 36.8541667,24.1458333 C36.8541667,20.636524 34.0093093,17.7916667 30.5,17.7916667 C26.9906907,17.7916667 24.1458333,20.636524 24.1458333,24.1458333 C24.1458333,27.6551427 26.9906907,30.5 30.5,30.5 C33.5438729,30.5 36.0878571,28.3597219 36.7091264,25.5019917 Z M15.25,43.2083333 C15.25,38.2976869 18.0352522,34.037571 22.1121772,31.9215648 C21.7015654,31.4788382 21.3255748,31.0035482 20.9885102,30.5 L17.7916667,30.5 C13.5804954,30.5 10.1666667,33.9138288 10.1666667,38.125 L10.1666667,43.2083333 L15.25,43.2083333 Z M20.3333333,12.7083333 C16.824024,12.7083333 13.9791667,15.5531907 13.9791667,19.0625 C13.9791667,22.1569129 16.1911086,24.7346991 19.1201098,25.3009761 C19.082011,24.9211009 19.0625,24.5357456 19.0625,24.1458333 C19.0625,19.9894721 21.2795284,16.3509256 24.5955199,14.348259 C23.4533669,13.3157014 21.9483027,12.7083333 20.3333333,12.7083333 Z"></path>
                        </g>
                    </g>
                </g>
            </g>
        </g>
    </g>
</svg>