<?xml version="1.0" encoding="UTF-8"?>
<svg width="51px" height="47px" viewBox="0 0 51 47" version="1.1" xmlns="http://www.w3.org/2000/svg" xmlns:xlink="http://www.w3.org/1999/xlink">
    <!-- Generator: Sketch 52.5 (67469) - http://www.bohemiancoding.com/sketch -->
    <title>email-outbox-02</title>
    <desc>Created with Sketch.</desc>
    <g id="Screens" stroke="none" stroke-width="1" fill="none" fill-rule="evenodd">
        <g id="dash-meter-reading" transform="translate(-133.000000, -159.000000)" fill="#FFC864">
            <path d="M154.616667,200.291667 L162.383333,200.291667 C163.046075,200.291667 163.583333,200.828925 163.583333,201.491667 L163.583333,204.175 C163.583333,204.837742 163.046075,205.375 162.383333,205.375 L154.616667,205.375 C153.953925,205.375 153.416667,204.837742 153.416667,204.175 L153.416667,201.491667 C153.416667,200.828925 153.953925,200.291667 154.616667,200.291667 Z M166.125,204.175 L166.125,201.491667 C166.125,200.828925 166.662258,200.291667 167.325,200.291667 L176.292997,200.291667 C177.696721,200.291667 178.834664,199.153724 178.834664,197.75 L178.834664,188.6 C178.834664,188.038511 178.379487,187.583333 177.817997,187.583333 L172.22633,187.583333 C171.664841,187.583333 171.209664,188.038511 171.209664,188.6 L171.209664,190.125 C171.209664,192.932447 168.933778,195.208333 166.12633,195.208333 L150.87633,195.208333 C148.068883,195.208333 145.792997,192.932447 145.792997,190.125 L145.792997,188.6 C145.792997,188.038511 145.33782,187.583333 144.77633,187.583333 L139.184664,187.583333 C138.623174,187.583333 138.167997,188.038511 138.167997,188.6 L138.167997,197.75 C138.167997,199.153724 139.30594,200.291667 140.709664,200.291667 L149.675,200.291667 C150.337742,200.291667 150.875,200.828925 150.875,201.491667 L150.875,204.175 C150.875,204.837742 150.337742,205.375 149.675,205.375 L140.709664,205.375 C136.498493,205.375 133.084664,201.961171 133.084664,197.75 L133.084664,182.5 C133.084664,181.990963 133.779235,178.819996 135.168378,172.987097 C135.94035,171.057167 137.809537,169.791667 139.888135,169.791667 L143.250676,169.791667 C144.6544,169.791667 145.792343,170.92961 145.792343,172.333333 C145.792343,173.737057 144.6544,174.875 143.250676,174.875 L141.138336,174.875 C140.411397,174.875 139.785515,175.388101 139.64295,176.100923 L138.48474,181.891974 C138.429681,182.167267 138.608217,182.43507 138.883509,182.490129 C138.905393,182.494505 141.547444,182.497796 146.809664,182.5 C149.055622,182.5 150.87633,184.320709 150.87633,186.566667 L150.87633,189.108333 C150.87633,189.669823 151.331508,190.125 151.892997,190.125 L165.109664,190.125 C165.671153,190.125 166.12633,189.669823 166.12633,189.108333 L166.12633,186.566667 C166.12633,184.320709 167.947039,182.5 170.192997,182.5 L178.01815,182.5 C178.298895,182.5 178.526484,182.272411 178.526484,181.991667 C178.526484,181.96935 178.137123,180.005769 177.358402,176.100923 C177.215838,175.388101 176.589955,174.875 175.863016,174.875 L173.750676,174.875 C172.346952,174.875 171.209009,173.737057 171.209009,172.333333 C171.209009,170.92961 172.346952,169.791667 173.750676,169.791667 L177.113217,169.791667 C179.191816,169.791667 181.061002,171.057167 181.832974,172.987097 C183.222989,178.824029 183.917997,181.994997 183.917997,182.5 L183.917997,197.75 C183.917997,201.961171 180.504168,205.375 176.292997,205.375 L167.325,205.375 C166.662258,205.375 166.125,204.837742 166.125,204.175 Z M156.0642,167.431188 L152.289477,172.020272 C151.384759,173.019129 149.917921,173.019129 149.013203,172.020272 C148.108484,171.021415 148.108484,169.401948 149.013203,168.403091 L155.225056,161.123285 C157.034492,159.125572 159.968169,159.125572 161.777605,161.123285 L167.989458,168.403091 C168.894177,169.401948 168.894177,171.021415 167.989458,172.020272 C167.08474,173.019129 165.617902,173.019129 164.713184,172.020272 L160.938461,167.431188 L160.938461,182.5 C160.938461,183.903724 159.84732,185.041667 158.50133,185.041667 C157.155341,185.041667 156.0642,183.903724 156.0642,182.5 L156.0642,167.431188 Z" id="email-outbox-02"></path>
        </g>
    </g>
</svg>