<?xml version="1.0" encoding="UTF-8"?>
<svg width="40px" height="45px" viewBox="0 0 40 45" version="1.1" xmlns="http://www.w3.org/2000/svg" xmlns:xlink="http://www.w3.org/1999/xlink">
    <!-- Generator: Sketch 52.5 (67469) - http://www.bohemiancoding.com/sketch -->
    <title>water</title>
    <desc>Created with Sketch.</desc>
    <g id="Screens" stroke="none" stroke-width="1" fill="none" fill-rule="evenodd">
        <g id="dash-meter-reading" transform="translate(-269.000000, -321.000000)">
            <g id="water" transform="translate(269.000000, 321.000000)">
                <path d="M39,24.5382706 C39,30.3160812 34.2993151,35 28.5002373,35 C22.7011596,35 18,30.3160812 18,24.5382706 C18,18.76046 28.5002373,3 28.5002373,3 C28.5002373,3 39,18.76046 39,24.5382706 Z" id="Path" fill="#8BB7F0"></path>
                <path d="M29.0002304,36 C22.9348723,36 18,30.8801215 18,24.5873758 C18,18.5633424 27.9070742,3.00862752 28.3292205,2.34927818 C28.627396,1.88357394 29.3730649,1.88357394 29.6712403,2.34927818 C30.0929258,3.00862752 40,18.5633424 40,24.5873758 C40,30.8805996 35.0655885,36 29.0002304,36 Z M29.0002304,4.34645165 C26.7484759,7.9903248 19.6107002,19.9116855 19.6107002,24.5878539 C19.6107002,29.9592319 23.8229466,34.3289154 29.0002304,34.3289154 C34.1775142,34.3289154 38.3892997,29.9592319 38.3892997,24.5878539 C38.3892997,19.9116855 31.2515239,7.9903248 29.0002304,4.34645165 Z" id="Shape" fill="#587BA8" fill-rule="nonzero"></path>
                <path d="M29,29.942526 C29,37.706336 22.7317019,44 14.9997643,44 C7.26782675,44 1,37.706336 1,29.942526 C1,22.178716 14.9997643,1 14.9997643,1 C14.9997643,1 29,22.178716 29,29.942526 Z" id="Path" fill="#C2E8FF"></path>
                <path d="M14.4999999,45 C6.50487966,45 0,38.2673362 0,29.9922473 C0,22.0043653 13.2642019,1.22957464 13.8288616,0.348870518 C14.1270941,-0.116290173 14.8729059,-0.116290173 15.1711383,0.348870518 C15.7357981,1.22957464 29,22.0043653 29,29.9922473 C29,38.2673362 22.4955813,45 14.4999999,45 Z M14.4999999,2.33832682 C11.7647424,6.73182898 1.6110087,23.4799982 1.6110087,29.9922473 C1.6110087,37.347988 7.39312396,43.332578 14.4999999,43.332578 C21.606876,43.332578 27.3889913,37.347988 27.3889913,29.9922473 C27.3889913,23.4785669 17.2361795,6.73278309 14.4999999,2.33832682 Z" id="Shape" fill="#587BA8" fill-rule="nonzero"></path>
                <path d="M14.8526488,39 C14.3816665,39 14,38.6183334 14,38.1473511 C14,37.6758808 14.3816665,37.2942142 14.8526488,37.2942142 C19.507321,37.2942142 23.2942142,33.5073209 23.2942142,28.8531369 C23.2942142,28.3816666 23.6758808,28 24.1468631,28 C24.6178454,28 25,28.3816666 25,28.8531369 C25,34.4478215 20.4478214,39 14.8526488,39 Z" id="Path" fill="#587BA8"></path>
                <path d="M34.2268999,23 C33.9330496,23 33.6524756,22.8006453 33.5228098,22.4650821 L33.0696431,21.2898282 C32.8926248,20.8311034 33.064775,20.2904449 33.45333,20.0822183 C33.8410001,19.8734698 34.2999199,20.075956 34.4773807,20.5341588 L34.9305474,21.7094126 C35.1071231,22.1681374 34.9354154,22.708796 34.5468603,22.9175444 C34.4428622,22.9733847 34.3344384,23 34.2268999,23 Z" id="Path" fill="#587BA8"></path>
                <path d="M32.1998457,18 C31.8956817,18 31.6048021,17.8219601 31.4705851,17.5218093 L29.0720874,12.1517189 C28.8888561,11.7425069 29.0670485,11.2596556 29.4692413,11.0736926 C29.8696016,10.8867973 30.346003,11.0676336 30.5292343,11.4777776 L32.9281902,16.8478681 C33.1109634,17.2570799 32.9327709,17.7399313 32.5305782,17.9258944 C32.4233879,17.9757642 32.3111587,18 32.1998457,18 Z" id="Path" fill="#587BA8"></path>
            </g>
        </g>
    </g>
</svg>